<svg width="1280" height="122" viewBox="0 0 1280 122" fill="none" xmlns="http://www.w3.org/2000/svg">
<g clip-path="url(#clip0_2_5)">
<path d="M177.736 58.8867V61.6289H168.829V58.8867H177.736ZM169.872 51.9375V69H166.357V51.9375H169.872ZM180.243 51.9375V69H176.74V51.9375H180.243ZM182.552 62.789V62.5429C182.552 61.6133 182.685 60.7578 182.951 59.9765C183.216 59.1875 183.603 58.5039 184.111 57.9258C184.618 57.3476 185.243 56.8984 185.986 56.5781C186.728 56.25 187.579 56.0859 188.54 56.0859C189.501 56.0859 190.357 56.25 191.107 56.5781C191.857 56.8984 192.486 57.3476 192.993 57.9258C193.509 58.5039 193.9 59.1875 194.165 59.9765C194.431 60.7578 194.564 61.6133 194.564 62.5429V62.789C194.564 63.7109 194.431 64.5664 194.165 65.3554C193.9 66.1367 193.509 66.8203 192.993 67.4062C192.486 67.9843 191.861 68.4336 191.118 68.7539C190.376 69.0742 189.525 69.2343 188.564 69.2343C187.603 69.2343 186.747 69.0742 185.997 68.7539C185.255 68.4336 184.626 67.9843 184.111 67.4062C183.603 66.8203 183.216 66.1367 182.951 65.3554C182.685 64.5664 182.552 63.7109 182.552 62.789ZM185.927 62.5429V62.789C185.927 63.3203 185.974 63.8164 186.068 64.2773C186.161 64.7383 186.31 65.1445 186.513 65.4961C186.724 65.8398 186.997 66.1093 187.333 66.3047C187.669 66.5 188.079 66.5976 188.564 66.5976C189.033 66.5976 189.435 66.5 189.771 66.3047C190.107 66.1093 190.376 65.8398 190.579 65.4961C190.783 65.1445 190.931 64.7383 191.025 64.2773C191.126 63.8164 191.177 63.3203 191.177 62.789V62.5429C191.177 62.0273 191.126 61.5429 191.025 61.0898C190.931 60.6289 190.779 60.2226 190.568 59.8711C190.365 59.5117 190.095 59.2304 189.759 59.0273C189.423 58.8242 189.017 58.7226 188.54 58.7226C188.064 58.7226 187.658 58.8242 187.322 59.0273C186.993 59.2304 186.724 59.5117 186.513 59.8711C186.31 60.2226 186.161 60.6289 186.068 61.0898C185.974 61.5429 185.927 62.0273 185.927 62.5429ZM200.013 58.9453V69H196.626V56.3203H199.802L200.013 58.9453ZM199.544 62.2148H198.607C198.607 61.332 198.712 60.5195 198.923 59.7773C199.142 59.0273 199.458 58.3789 199.872 57.832C200.294 57.2773 200.814 56.8476 201.431 56.5429C202.048 56.2383 202.763 56.0859 203.576 56.0859C204.138 56.0859 204.654 56.1718 205.122 56.3437C205.591 56.5078 205.993 56.7695 206.329 57.1289C206.673 57.4804 206.939 57.9414 207.126 58.5117C207.314 59.0742 207.408 59.75 207.408 60.539V69H204.033V60.914C204.033 60.3359 203.954 59.8906 203.798 59.5781C203.642 59.2656 203.419 59.0468 203.13 58.9218C202.849 58.7968 202.509 58.7343 202.111 58.7343C201.673 58.7343 201.29 58.8242 200.962 59.0039C200.642 59.1836 200.376 59.4336 200.165 59.7539C199.954 60.0664 199.798 60.4336 199.697 60.8554C199.595 61.2773 199.544 61.7304 199.544 62.2148ZM207.091 61.8281L205.884 61.9804C205.884 61.1523 205.986 60.3828 206.189 59.6718C206.4 58.9609 206.708 58.3359 207.115 57.7968C207.529 57.2578 208.04 56.8398 208.65 56.5429C209.259 56.2383 209.962 56.0859 210.759 56.0859C211.368 56.0859 211.923 56.1758 212.423 56.3554C212.923 56.5273 213.349 56.8047 213.701 57.1875C214.06 57.5625 214.333 58.0547 214.521 58.664C214.716 59.2734 214.814 60.0195 214.814 60.9023V69H211.427V60.9023C211.427 60.3164 211.349 59.8711 211.193 59.5664C211.044 59.2539 210.826 59.039 210.536 58.9218C210.255 58.7968 209.919 58.7343 209.529 58.7343C209.122 58.7343 208.767 58.8164 208.462 58.9804C208.158 59.1367 207.904 59.3554 207.701 59.6367C207.497 59.9179 207.345 60.2461 207.243 60.6211C207.142 60.9883 207.091 61.3906 207.091 61.8281ZM223.263 69.2343C222.279 69.2343 221.396 69.0781 220.615 68.7656C219.833 68.4453 219.169 68.0039 218.622 67.4414C218.083 66.8789 217.669 66.2265 217.38 65.4843C217.091 64.7343 216.947 63.9375 216.947 63.0937V62.625C216.947 61.664 217.083 60.7851 217.357 59.9883C217.63 59.1914 218.021 58.5 218.529 57.914C219.044 57.3281 219.669 56.8789 220.404 56.5664C221.138 56.2461 221.966 56.0859 222.888 56.0859C223.786 56.0859 224.583 56.2343 225.279 56.5312C225.974 56.8281 226.556 57.25 227.025 57.7968C227.501 58.3437 227.861 59 228.103 59.7656C228.345 60.5234 228.466 61.3672 228.466 62.2968V63.7031H218.388V61.4531H225.15V61.1953C225.15 60.7265 225.064 60.3086 224.892 59.9414C224.728 59.5664 224.478 59.2695 224.142 59.0508C223.806 58.832 223.376 58.7226 222.853 58.7226C222.408 58.7226 222.025 58.8203 221.704 59.0156C221.384 59.2109 221.122 59.4843 220.919 59.8359C220.724 60.1875 220.576 60.6015 220.474 61.0781C220.38 61.5468 220.333 62.0625 220.333 62.625V63.0937C220.333 63.6015 220.404 64.0703 220.544 64.5C220.693 64.9297 220.9 65.3008 221.165 65.6133C221.439 65.9258 221.767 66.1679 222.15 66.3398C222.54 66.5117 222.982 66.5976 223.474 66.5976C224.083 66.5976 224.65 66.4804 225.173 66.2461C225.704 66.0039 226.161 65.6406 226.544 65.1562L228.185 66.9375C227.919 67.3203 227.556 67.6875 227.095 68.039C226.642 68.3906 226.095 68.6797 225.454 68.9062C224.814 69.125 224.083 69.2343 223.263 69.2343Z" fill="white"/>
<path d="M297.147 59.8115V60.7848C297.147 61.9415 297.003 62.9783 296.714 63.8952C296.425 64.812 296.008 65.5914 295.465 66.2332C294.922 66.875 294.27 67.3652 293.508 67.7037C292.754 68.0423 291.907 68.2116 290.969 68.2116C290.059 68.2116 289.224 68.0423 288.462 67.7037C287.707 67.3652 287.051 66.875 286.494 66.2332C285.944 65.5914 285.517 64.812 285.214 63.8952C284.911 62.9783 284.759 61.9415 284.759 60.7848V59.8115C284.759 58.6548 284.907 57.6216 285.203 56.7117C285.507 55.7948 285.933 55.0155 286.483 54.3737C287.034 53.7248 287.686 53.2311 288.441 52.8925C289.202 52.554 290.038 52.3847 290.948 52.3847C291.886 52.3847 292.732 52.554 293.487 52.8925C294.249 53.2311 294.901 53.7248 295.444 54.3737C295.994 55.0155 296.414 55.7948 296.703 56.7117C296.999 57.6216 297.147 58.6548 297.147 59.8115ZM295.127 60.7848V59.7903C295.127 58.8734 295.032 58.0624 294.841 57.3571C294.658 56.6518 294.386 56.0593 294.027 55.5797C293.667 55.1001 293.226 54.7369 292.704 54.49C292.189 54.2432 291.604 54.1198 290.948 54.1198C290.313 54.1198 289.738 54.2432 289.224 54.49C288.716 54.7369 288.278 55.1001 287.912 55.5797C287.552 56.0593 287.273 56.6518 287.076 57.3571C286.878 58.0624 286.78 58.8734 286.78 59.7903V60.7848C286.78 61.7087 286.878 62.5269 287.076 63.2392C287.273 63.9445 287.555 64.5405 287.922 65.0272C288.296 65.5068 288.737 65.87 289.245 66.1168C289.76 66.3637 290.334 66.4871 290.969 66.4871C291.632 66.4871 292.221 66.3637 292.736 66.1168C293.251 65.87 293.684 65.5068 294.037 65.0272C294.397 64.5405 294.668 63.9445 294.852 63.2392C295.035 62.5269 295.127 61.7087 295.127 60.7848ZM314.392 52.5963H316.423V63.0171C316.423 64.1737 316.166 65.1365 315.651 65.9052C315.136 66.674 314.452 67.2524 313.599 67.6403C312.752 68.0211 311.832 68.2116 310.837 68.2116C309.793 68.2116 308.848 68.0211 308.002 67.6403C307.163 67.2524 306.496 66.674 306.002 65.9052C305.516 65.1365 305.272 64.1737 305.272 63.0171V52.5963H307.293V63.0171C307.293 63.8211 307.441 64.4841 307.737 65.006C308.034 65.5279 308.446 65.9158 308.975 66.1697C309.511 66.4236 310.132 66.5506 310.837 66.5506C311.55 66.5506 312.17 66.4236 312.699 66.1697C313.235 65.9158 313.651 65.5279 313.948 65.006C314.244 64.4841 314.392 63.8211 314.392 63.0171V52.5963ZM321.29 58.9969V68H319.333V56.553H321.184L321.29 58.9969ZM320.824 61.8427L320.01 61.811C320.017 61.0281 320.133 60.3052 320.359 59.6422C320.584 58.9722 320.902 58.3903 321.311 57.8966C321.72 57.4029 322.207 57.0221 322.771 56.754C323.342 56.479 323.973 56.3414 324.665 56.3414C325.229 56.3414 325.737 56.419 326.188 56.5742C326.639 56.7223 327.024 56.9621 327.341 57.2936C327.666 57.6251 327.912 58.0553 328.082 58.5843C328.251 59.1062 328.336 59.7445 328.336 60.4992V68H326.368V60.478C326.368 59.8785 326.28 59.3989 326.103 59.0392C325.927 58.6724 325.67 58.408 325.331 58.2457C324.993 58.0765 324.576 57.9918 324.083 57.9918C323.596 57.9918 323.152 58.0941 322.75 58.2986C322.355 58.5032 322.013 58.7853 321.724 59.145C321.441 59.5047 321.219 59.9173 321.057 60.3828C320.902 60.8412 320.824 61.3279 320.824 61.8427ZM333.435 56.553V68H331.467V56.553H333.435ZM331.319 53.5167C331.319 53.1994 331.414 52.9313 331.605 52.7127C331.802 52.4941 332.091 52.3847 332.472 52.3847C332.846 52.3847 333.132 52.4941 333.329 52.7127C333.534 52.9313 333.636 53.1994 333.636 53.5167C333.636 53.82 333.534 54.081 333.329 54.2996C333.132 54.5112 332.846 54.617 332.472 54.617C332.091 54.617 331.802 54.5112 331.605 54.2996C331.414 54.081 331.319 53.82 331.319 53.5167ZM340.058 66.2332L343.189 56.553H345.189L341.073 68H339.761L340.058 66.2332ZM337.445 56.553L340.671 66.2861L340.893 68H339.582L335.434 56.553H337.445ZM351.674 68.2116C350.877 68.2116 350.154 68.0776 349.505 67.8095C348.863 67.5345 348.31 67.1501 347.844 66.6564C347.386 66.1627 347.033 65.5773 346.786 64.9002C346.539 64.2231 346.416 63.4826 346.416 62.6785V62.2342C346.416 61.3032 346.553 60.4745 346.828 59.748C347.104 59.0145 347.477 58.3938 347.95 57.886C348.422 57.3782 348.958 56.9938 349.558 56.7329C350.157 56.4719 350.778 56.3414 351.42 56.3414C352.238 56.3414 352.943 56.4825 353.536 56.7646C354.135 57.0467 354.626 57.4417 355.006 57.9495C355.387 58.4503 355.669 59.0427 355.853 59.7269C356.036 60.4039 356.128 61.1445 356.128 61.9485V62.8266H347.58V61.2291H354.171V61.081C354.142 60.5732 354.037 60.0795 353.853 59.5999C353.677 59.1203 353.395 58.7253 353.007 58.415C352.619 58.1047 352.09 57.9495 351.42 57.9495C350.976 57.9495 350.567 58.0447 350.193 58.2352C349.819 58.4185 349.498 58.6936 349.23 59.0604C348.962 59.4271 348.754 59.875 348.606 60.4039C348.458 60.9329 348.384 61.543 348.384 62.2342V62.6785C348.384 63.2216 348.458 63.7329 348.606 64.2125C348.761 64.6851 348.983 65.1012 349.272 65.4609C349.569 65.8206 349.925 66.1027 350.341 66.3073C350.764 66.5118 351.244 66.6141 351.78 66.6141C352.471 66.6141 353.056 66.473 353.536 66.1909C354.015 65.9088 354.435 65.5314 354.795 65.0589L355.98 66.0005C355.733 66.3743 355.419 66.7304 355.038 67.069C354.657 67.4075 354.188 67.6826 353.631 67.8942C353.081 68.1058 352.429 68.2116 351.674 68.2116ZM360.37 58.3515V68H358.413V56.553H360.317L360.37 58.3515ZM363.946 56.4896L363.935 58.3092C363.773 58.2739 363.618 58.2528 363.47 58.2457C363.329 58.2316 363.167 58.2246 362.983 58.2246C362.532 58.2246 362.133 58.2951 361.788 58.4362C361.442 58.5772 361.15 58.7747 360.91 59.0286C360.67 59.2825 360.479 59.5858 360.338 59.9384C360.204 60.284 360.116 60.6649 360.074 61.081L359.524 61.3984C359.524 60.7072 359.591 60.0583 359.725 59.4518C359.866 58.8452 360.081 58.3092 360.37 57.8437C360.659 57.3712 361.026 57.0044 361.47 56.7435C361.922 56.4754 362.458 56.3414 363.078 56.3414C363.22 56.3414 363.382 56.3591 363.565 56.3943C363.749 56.4225 363.875 56.4543 363.946 56.4896ZM372.42 64.9637C372.42 64.6816 372.357 64.4206 372.23 64.1808C372.11 63.9339 371.859 63.7118 371.479 63.5143C371.105 63.3098 370.541 63.1334 369.786 62.9853C369.151 62.8513 368.576 62.6926 368.061 62.5092C367.554 62.3259 367.12 62.1037 366.76 61.8427C366.407 61.5818 366.136 61.275 365.946 60.9223C365.755 60.5697 365.66 60.1571 365.66 59.6845C365.66 59.2332 365.759 58.8064 365.956 58.4044C366.161 58.0024 366.446 57.6462 366.813 57.3359C367.187 57.0256 367.635 56.7822 368.157 56.6059C368.679 56.4296 369.26 56.3414 369.902 56.3414C370.819 56.3414 371.602 56.5037 372.251 56.8281C372.9 57.1525 373.397 57.5863 373.743 58.1294C374.088 58.6654 374.261 59.2614 374.261 59.9173H372.304C372.304 59.5999 372.209 59.2931 372.018 58.9969C371.835 58.6936 371.563 58.4432 371.203 58.2457C370.851 58.0483 370.417 57.9495 369.902 57.9495C369.359 57.9495 368.918 58.0341 368.58 58.2034C368.248 58.3656 368.005 58.5737 367.85 58.8276C367.702 59.0815 367.628 59.3495 367.628 59.6316C367.628 59.8432 367.663 60.0337 367.733 60.2029C367.811 60.3651 367.945 60.5168 368.135 60.6578C368.326 60.7919 368.594 60.9188 368.939 61.0387C369.285 61.1586 369.726 61.2785 370.262 61.3984C371.2 61.61 371.972 61.8639 372.579 62.1601C373.185 62.4563 373.637 62.8196 373.933 63.2498C374.229 63.68 374.377 64.202 374.377 64.8156C374.377 65.3163 374.272 65.7748 374.06 66.1909C373.855 66.607 373.556 66.9667 373.161 67.27C372.773 67.5662 372.307 67.799 371.764 67.9682C371.228 68.1304 370.625 68.2116 369.955 68.2116C368.947 68.2116 368.093 68.0317 367.395 67.672C366.697 67.3123 366.168 66.8468 365.808 66.2755C365.448 65.7042 365.268 65.1012 365.268 64.4664H367.236C367.264 65.0025 367.42 65.4292 367.702 65.7466C367.984 66.0569 368.329 66.279 368.738 66.4131C369.148 66.54 369.553 66.6035 369.955 66.6035C370.491 66.6035 370.939 66.533 371.299 66.3919C371.665 66.2508 371.944 66.0569 372.134 65.81C372.325 65.5632 372.42 65.2811 372.42 64.9637ZM376.43 62.4035V62.1601C376.43 61.3349 376.55 60.5697 376.789 59.8644C377.029 59.152 377.375 58.5349 377.826 58.013C378.278 57.484 378.824 57.0749 379.466 56.7858C380.108 56.4896 380.827 56.3414 381.624 56.3414C382.428 56.3414 383.151 56.4896 383.793 56.7858C384.442 57.0749 384.992 57.484 385.443 58.013C385.902 58.5349 386.251 59.152 386.491 59.8644C386.731 60.5697 386.85 61.3349 386.85 62.1601V62.4035C386.85 63.2286 386.731 63.9939 386.491 64.6992C386.251 65.4045 385.902 66.0216 385.443 66.5506C384.992 67.0725 384.445 67.4816 383.804 67.7778C383.169 68.067 382.449 68.2116 381.645 68.2116C380.841 68.2116 380.118 68.067 379.477 67.7778C378.835 67.4816 378.285 67.0725 377.826 66.5506C377.375 66.0216 377.029 65.4045 376.789 64.6992C376.55 63.9939 376.43 63.2286 376.43 62.4035ZM378.387 62.1601V62.4035C378.387 62.9747 378.454 63.5143 378.588 64.0221C378.722 64.5229 378.923 64.9672 379.191 65.3551C379.466 65.743 379.808 66.0498 380.217 66.2755C380.626 66.4942 381.102 66.6035 381.645 66.6035C382.181 66.6035 382.65 66.4942 383.052 66.2755C383.462 66.0498 383.8 65.743 384.068 65.3551C384.336 64.9672 384.537 64.5229 384.671 64.0221C384.812 63.5143 384.883 62.9747 384.883 62.4035V62.1601C384.883 61.5959 384.812 61.0634 384.671 60.5626C384.537 60.0548 384.333 59.607 384.057 59.219C383.789 58.8241 383.451 58.5137 383.042 58.2881C382.64 58.0624 382.167 57.9495 381.624 57.9495C381.088 57.9495 380.616 58.0624 380.207 58.2881C379.805 58.5137 379.466 58.8241 379.191 59.219C378.923 59.607 378.722 60.0548 378.588 60.5626C378.454 61.0634 378.387 61.5959 378.387 62.1601Z" fill="#C4C4CC"/>
<path d="M453.741 66.339V68H445.584V66.339H453.741ZM445.996 52.5963V68H443.955V52.5963H445.996ZM452.661 59.219V60.88H445.584V59.219H452.661ZM453.635 52.5963V54.2679H445.584V52.5963H453.635ZM457.295 56.553L459.803 60.7213L462.342 56.553H464.637L460.892 62.2024L464.754 68H462.49L459.845 63.7047L457.2 68H454.925L458.776 62.2024L455.042 56.553H457.295ZM468.679 58.7535V72.401H466.711V56.553H468.509L468.679 58.7535ZM476.391 62.1813V62.4035C476.391 63.2357 476.292 64.008 476.095 64.7203C475.897 65.4256 475.608 66.0392 475.227 66.5612C474.854 67.0831 474.392 67.4886 473.841 67.7778C473.291 68.067 472.66 68.2116 471.948 68.2116C471.221 68.2116 470.58 68.0917 470.022 67.8519C469.465 67.6121 468.993 67.2629 468.605 66.8045C468.217 66.3461 467.906 65.7959 467.674 65.1541C467.448 64.5123 467.293 63.7894 467.208 62.9853V61.8004C467.293 60.9541 467.452 60.1959 467.684 59.5258C467.917 58.8558 468.224 58.2845 468.605 57.812C468.993 57.3324 469.462 56.9692 470.012 56.7223C470.562 56.4684 471.197 56.3414 471.916 56.3414C472.635 56.3414 473.274 56.4825 473.831 56.7646C474.388 57.0397 474.857 57.4346 475.238 57.9495C475.619 58.4644 475.904 59.0815 476.095 59.8009C476.292 60.5133 476.391 61.3067 476.391 62.1813ZM474.423 62.4035V62.1813C474.423 61.61 474.363 61.074 474.244 60.5732C474.124 60.0654 473.937 59.6211 473.683 59.2402C473.436 58.8523 473.119 58.549 472.731 58.3304C472.343 58.1047 471.881 57.9918 471.345 57.9918C470.851 57.9918 470.421 58.0765 470.054 58.2457C469.694 58.415 469.388 58.6442 469.134 58.9334C468.88 59.2155 468.672 59.54 468.509 59.9067C468.354 60.2664 468.238 60.6402 468.16 61.0281V63.7682C468.301 64.2619 468.499 64.7274 468.753 65.1647C469.007 65.5949 469.345 65.944 469.768 66.212C470.192 66.473 470.724 66.6035 471.366 66.6035C471.895 66.6035 472.35 66.4942 472.731 66.2755C473.119 66.0498 473.436 65.743 473.683 65.3551C473.937 64.9672 474.124 64.5229 474.244 64.0221C474.363 63.5143 474.423 62.9747 474.423 62.4035ZM481.014 51.75V68H479.047V51.75H481.014ZM483.638 62.4035V62.1601C483.638 61.3349 483.758 60.5697 483.998 59.8644C484.238 59.152 484.583 58.5349 485.035 58.013C485.486 57.484 486.033 57.0749 486.674 56.7858C487.316 56.4896 488.036 56.3414 488.833 56.3414C489.637 56.3414 490.36 56.4896 491.001 56.7858C491.65 57.0749 492.2 57.484 492.652 58.013C493.11 58.5349 493.459 59.152 493.699 59.8644C493.939 60.5697 494.059 61.3349 494.059 62.1601V62.4035C494.059 63.2286 493.939 63.9939 493.699 64.6992C493.459 65.4045 493.11 66.0216 492.652 66.5506C492.2 67.0725 491.654 67.4816 491.012 67.7778C490.377 68.067 489.658 68.2116 488.854 68.2116C488.05 68.2116 487.327 68.067 486.685 67.7778C486.043 67.4816 485.493 67.0725 485.035 66.5506C484.583 66.0216 484.238 65.4045 483.998 64.6992C483.758 63.9939 483.638 63.2286 483.638 62.4035ZM485.595 62.1601V62.4035C485.595 62.9747 485.662 63.5143 485.796 64.0221C485.93 64.5229 486.131 64.9672 486.399 65.3551C486.674 65.743 487.016 66.0498 487.425 66.2755C487.835 66.4942 488.311 66.6035 488.854 66.6035C489.39 66.6035 489.859 66.4942 490.261 66.2755C490.67 66.0498 491.008 65.743 491.276 65.3551C491.544 64.9672 491.745 64.5229 491.879 64.0221C492.02 63.5143 492.091 62.9747 492.091 62.4035V62.1601C492.091 61.5959 492.02 61.0634 491.879 60.5626C491.745 60.0548 491.541 59.607 491.266 59.219C490.998 58.8241 490.659 58.5137 490.25 58.2881C489.848 58.0624 489.376 57.9495 488.833 57.9495C488.297 57.9495 487.824 58.0624 487.415 58.2881C487.013 58.5137 486.674 58.8241 486.399 59.219C486.131 59.607 485.93 60.0548 485.796 60.5626C485.662 61.0634 485.595 61.5959 485.595 62.1601ZM498.47 58.3515V68H496.513V56.553H498.418L498.47 58.3515ZM502.046 56.4896L502.036 58.3092C501.873 58.2739 501.718 58.2528 501.57 58.2457C501.429 58.2316 501.267 58.2246 501.084 58.2246C500.632 58.2246 500.234 58.2951 499.888 58.4362C499.542 58.5772 499.25 58.7747 499.01 59.0286C498.77 59.2825 498.58 59.5858 498.439 59.9384C498.305 60.284 498.216 60.6649 498.174 61.081L497.624 61.3984C497.624 60.7072 497.691 60.0583 497.825 59.4518C497.966 58.8452 498.181 58.3092 498.47 57.8437C498.76 57.3712 499.126 57.0044 499.571 56.7435C500.022 56.4754 500.558 56.3414 501.179 56.3414C501.32 56.3414 501.482 56.3591 501.665 56.3943C501.849 56.4225 501.976 56.4543 502.046 56.4896ZM510.182 66.0428V60.15C510.182 59.6986 510.09 59.3072 509.907 58.9757C509.73 58.6372 509.462 58.3762 509.103 58.1928C508.743 58.0095 508.299 57.9178 507.77 57.9178C507.276 57.9178 506.842 58.0024 506.468 58.1717C506.102 58.341 505.813 58.5631 505.601 58.8382C505.396 59.1133 505.294 59.4095 505.294 59.7269H503.337C503.337 59.3178 503.443 58.9122 503.654 58.5102C503.866 58.1082 504.169 57.745 504.564 57.4205C504.966 57.0891 505.446 56.8281 506.003 56.6377C506.567 56.4402 507.195 56.3414 507.886 56.3414C508.718 56.3414 509.452 56.4825 510.087 56.7646C510.728 57.0467 511.229 57.4734 511.589 58.0447C511.956 58.609 512.139 59.3178 512.139 60.1712V65.5032C512.139 65.8841 512.171 66.2896 512.234 66.7199C512.305 67.1501 512.407 67.5204 512.541 67.8307V68H510.499C510.4 67.7743 510.323 67.4745 510.266 67.1007C510.21 66.7199 510.182 66.3672 510.182 66.0428ZM510.52 61.0599L510.542 62.4352H508.563C508.006 62.4352 507.509 62.481 507.071 62.5727C506.634 62.6574 506.267 62.7878 505.971 62.9642C505.675 63.1405 505.449 63.3627 505.294 63.6307C505.139 63.8916 505.061 64.1984 505.061 64.5511C505.061 64.9108 505.142 65.2387 505.305 65.535C505.467 65.8312 505.71 66.0675 506.035 66.2438C506.366 66.4131 506.772 66.4977 507.251 66.4977C507.851 66.4977 508.38 66.3707 508.838 66.1168C509.297 65.8629 509.66 65.5526 509.928 65.1858C510.203 64.8191 510.351 64.4629 510.372 64.1173L511.208 65.0589C511.159 65.3551 511.025 65.6831 510.806 66.0428C510.587 66.4025 510.295 66.7481 509.928 67.0796C509.568 67.404 509.138 67.6755 508.637 67.8942C508.144 68.1058 507.586 68.2116 506.966 68.2116C506.19 68.2116 505.509 68.0599 504.924 67.7566C504.346 67.4534 503.894 67.0478 503.57 66.54C503.252 66.0251 503.094 65.4503 503.094 64.8156C503.094 64.202 503.214 63.6624 503.453 63.1969C503.693 62.7244 504.039 62.3329 504.49 62.0226C504.941 61.7052 505.485 61.4654 506.119 61.3032C506.754 61.141 507.463 61.0599 508.246 61.0599H510.52ZM519.799 66.6035C520.264 66.6035 520.694 66.5083 521.089 66.3178C521.484 66.1274 521.809 65.8665 522.063 65.535C522.316 65.1964 522.461 64.812 522.496 64.3818H524.358C524.323 65.0589 524.094 65.6901 523.671 66.2755C523.254 66.8539 522.708 67.3229 522.031 67.6826C521.354 68.0352 520.61 68.2116 519.799 68.2116C518.938 68.2116 518.187 68.0599 517.545 67.7566C516.91 67.4534 516.381 67.0372 515.958 66.5083C515.542 65.9793 515.228 65.3727 515.017 64.6886C514.812 63.9974 514.71 63.2674 514.71 62.4987V62.0543C514.71 61.2856 514.812 60.5591 515.017 59.875C515.228 59.1838 515.542 58.5737 515.958 58.0447C516.381 57.5158 516.91 57.0996 517.545 56.7964C518.187 56.4931 518.938 56.3414 519.799 56.3414C520.694 56.3414 521.477 56.5248 522.147 56.8916C522.817 57.2513 523.343 57.745 523.723 58.3727C524.111 58.9934 524.323 59.6986 524.358 60.4886H522.496C522.461 60.016 522.327 59.5893 522.094 59.2085C521.869 58.8276 521.558 58.5243 521.163 58.2986C520.775 58.0659 520.32 57.9495 519.799 57.9495C519.199 57.9495 518.695 58.0694 518.286 58.3092C517.884 58.542 517.563 58.8593 517.323 59.2614C517.09 59.6563 516.921 60.0971 516.815 60.5838C516.716 61.0634 516.667 61.5536 516.667 62.0543V62.4987C516.667 62.9994 516.716 63.4931 516.815 63.9798C516.914 64.4664 517.08 64.9073 517.312 65.3022C517.552 65.6972 517.873 66.0146 518.275 66.2544C518.684 66.4871 519.192 66.6035 519.799 66.6035ZM518.719 68.1058H520.126L520 68.6665C520.409 68.737 520.779 68.9063 521.11 69.1743C521.449 69.4423 521.618 69.8831 521.618 70.4967C521.618 70.8282 521.548 71.128 521.407 71.396C521.273 71.671 521.072 71.9038 520.804 72.0942C520.536 72.2917 520.201 72.4433 519.799 72.5491C519.404 72.6549 518.942 72.7078 518.413 72.7078L518.339 71.5758C518.663 71.5758 518.956 71.5406 519.217 71.47C519.485 71.3995 519.696 71.2866 519.851 71.1315C520.014 70.9763 520.095 70.7753 520.095 70.5285C520.095 70.2957 520.035 70.1123 519.915 69.9783C519.795 69.8443 519.608 69.742 519.354 69.6715C519.107 69.608 518.786 69.5622 518.391 69.534L518.719 68.1058ZM533.308 66.0428V60.15C533.308 59.6986 533.217 59.3072 533.033 58.9757C532.857 58.6372 532.589 58.3762 532.229 58.1928C531.87 58.0095 531.425 57.9178 530.896 57.9178C530.403 57.9178 529.969 58.0024 529.595 58.1717C529.228 58.341 528.939 58.5631 528.728 58.8382C528.523 59.1133 528.421 59.4095 528.421 59.7269H526.464C526.464 59.3178 526.569 58.9122 526.781 58.5102C526.993 58.1082 527.296 57.745 527.691 57.4205C528.093 57.0891 528.572 56.8281 529.13 56.6377C529.694 56.4402 530.322 56.3414 531.013 56.3414C531.845 56.3414 532.578 56.4825 533.213 56.7646C533.855 57.0467 534.356 57.4734 534.716 58.0447C535.082 58.609 535.266 59.3178 535.266 60.1712V65.5032C535.266 65.8841 535.297 66.2896 535.361 66.7199C535.431 67.1501 535.534 67.5204 535.668 67.8307V68H533.626C533.527 67.7743 533.45 67.4745 533.393 67.1007C533.337 66.7199 533.308 66.3672 533.308 66.0428ZM533.647 61.0599L533.668 62.4352H531.69C531.133 62.4352 530.635 62.481 530.198 62.5727C529.761 62.6574 529.394 62.7878 529.098 62.9642C528.802 63.1405 528.576 63.3627 528.421 63.6307C528.266 63.8916 528.188 64.1984 528.188 64.5511C528.188 64.9108 528.269 65.2387 528.431 65.535C528.594 65.8312 528.837 66.0675 529.161 66.2438C529.493 66.4131 529.898 66.4977 530.378 66.4977C530.977 66.4977 531.506 66.3707 531.965 66.1168C532.423 65.8629 532.787 65.5526 533.055 65.1858C533.33 64.8191 533.478 64.4629 533.499 64.1173L534.335 65.0589C534.285 65.3551 534.151 65.6831 533.933 66.0428C533.714 66.4025 533.421 66.7481 533.055 67.0796C532.695 67.404 532.265 67.6755 531.764 67.8942C531.27 68.1058 530.713 68.2116 530.092 68.2116C529.316 68.2116 528.636 68.0599 528.05 67.7566C527.472 67.4534 527.021 67.0478 526.696 66.54C526.379 66.0251 526.22 65.4503 526.22 64.8156C526.22 64.202 526.34 63.6624 526.58 63.1969C526.82 62.7244 527.165 62.3329 527.617 62.0226C528.068 61.7052 528.611 61.4654 529.246 61.3032C529.881 61.141 530.59 61.0599 531.372 61.0599H533.647ZM533.658 51.9616L534.98 52.0779C534.98 52.5928 534.878 53.0442 534.673 53.4321C534.469 53.82 534.194 54.1198 533.848 54.3313C533.509 54.5429 533.125 54.6487 532.695 54.6487C532.335 54.6487 532.039 54.5994 531.806 54.5006C531.573 54.3948 531.365 54.2785 531.182 54.1515C530.999 54.0175 530.805 53.9011 530.6 53.8024C530.403 53.6966 530.156 53.6437 529.86 53.6437C529.563 53.6437 529.313 53.7565 529.108 53.9822C528.911 54.2079 528.812 54.4865 528.812 54.818L527.49 54.7545C527.49 54.2397 527.589 53.7883 527.786 53.4004C527.991 53.0054 528.266 52.6986 528.611 52.4799C528.957 52.2543 529.341 52.1414 529.764 52.1414C530.068 52.1414 530.332 52.1943 530.558 52.3001C530.791 52.3988 531.009 52.5152 531.214 52.6492C531.418 52.7762 531.63 52.8925 531.848 52.9983C532.067 53.0971 532.318 53.1465 532.6 53.1465C532.896 53.1465 533.146 53.0336 533.351 52.8079C533.555 52.5752 533.658 52.293 533.658 51.9616ZM537.826 62.4035V62.1601C537.826 61.3349 537.946 60.5697 538.186 59.8644C538.425 59.152 538.771 58.5349 539.222 58.013C539.674 57.484 540.22 57.0749 540.862 56.7858C541.504 56.4896 542.223 56.3414 543.02 56.3414C543.824 56.3414 544.547 56.4896 545.189 56.7858C545.838 57.0749 546.388 57.484 546.84 58.013C547.298 58.5349 547.647 59.152 547.887 59.8644C548.127 60.5697 548.247 61.3349 548.247 62.1601V62.4035C548.247 63.2286 548.127 63.9939 547.887 64.6992C547.647 65.4045 547.298 66.0216 546.84 66.5506C546.388 67.0725 545.842 67.4816 545.2 67.7778C544.565 68.067 543.846 68.2116 543.042 68.2116C542.237 68.2116 541.515 68.067 540.873 67.7778C540.231 67.4816 539.681 67.0725 539.222 66.5506C538.771 66.0216 538.425 65.4045 538.186 64.6992C537.946 63.9939 537.826 63.2286 537.826 62.4035ZM539.783 62.1601V62.4035C539.783 62.9747 539.85 63.5143 539.984 64.0221C540.118 64.5229 540.319 64.9672 540.587 65.3551C540.862 65.743 541.204 66.0498 541.613 66.2755C542.022 66.4942 542.498 66.6035 543.042 66.6035C543.578 66.6035 544.047 66.4942 544.449 66.2755C544.858 66.0498 545.196 65.743 545.464 65.3551C545.732 64.9672 545.933 64.5229 546.067 64.0221C546.208 63.5143 546.279 62.9747 546.279 62.4035V62.1601C546.279 61.5959 546.208 61.0634 546.067 60.5626C545.933 60.0548 545.729 59.607 545.454 59.219C545.186 58.8241 544.847 58.5137 544.438 58.2881C544.036 58.0624 543.563 57.9495 543.02 57.9495C542.484 57.9495 542.012 58.0624 541.603 58.2881C541.201 58.5137 540.862 58.8241 540.587 59.219C540.319 59.607 540.118 60.0548 539.984 60.5626C539.85 61.0634 539.783 61.5959 539.783 62.1601Z" fill="#C4C4CC"/>
<path d="M103.542 40.0098C98.1727 40.1747 91.3604 42.4718 84.1375 48.7379C69.3803 61.4919 72.2191 71.6427 72.2191 71.6427C72.2191 71.6427 70.6859 62.7633 84.6765 50.655C91.9593 44.3587 100.979 42.2902 106.537 46.9721C111.52 51.1696 110.777 58.2731 102.344 65.5381C99.0864 68.1212 95.6007 65.8307 99.0504 62.7633C99.4347 62.4396 99.7717 62.1194 100.069 61.8047C103.276 58.6232 105.746 53.7222 101.925 50.5036C97.3256 46.4675 89.5038 51.1696 86.054 54.237C75.1299 63.7622 74.8903 73.9231 81.0232 79.4122C85.2395 82.964 96.7506 84.3867 109.591 73.4085C124.349 60.6544 121.51 50.5036 121.51 50.5036C121.51 50.5036 123.043 59.3831 109.052 71.4914C101.77 77.7877 92.7499 79.9066 87.192 75.2248C82.209 71.0272 82.9517 63.9237 91.3844 56.6587C94.8341 53.9142 98.3078 56.1643 94.858 59.2317C94.4738 59.5554 94.1368 59.8756 93.8399 60.1903C90.6323 63.3718 88.1624 68.2728 91.9833 71.4914C96.5829 75.5275 104.213 70.664 107.854 67.758C118.97 58.2328 119.018 48.0719 112.885 42.5828C111.041 41.0289 107.719 39.8815 103.542 40.0098Z" fill="white"/>
</g>
<defs>
<clipPath id="clip0_2_5">
<rect width="489" height="42" fill="white" transform="translate(72 40)"/>
</clipPath>
</defs>
</svg>
